<?xml version="1.0" encoding="UTF-8"?>
<svg id="_Слой_2" data-name="Слой 2" xmlns="http://www.w3.org/2000/svg" viewBox="0 0 143.8 246.98">
  <defs>
    <style>
      .cls-1 {
        fill: none;
        stroke: #fff;
        stroke-miterlimit: 10;
        stroke-width: 4px;
      }
    </style>
  </defs>
  <g id="_Слой_2-2" data-name=" Слой 2">
    <g id="_Слой_1-2" data-name=" Слой 1-2">
      <g>
        <path class="cls-1" d="M27.07,141.41l8.8-7.76c1.09-.96,2.64-.87,3.64.2l10.52,11.38,21.87.15,21.87-.15,10.52-11.38c1-1.08,2.55-1.17,3.64-.2l8.8,7.76c15.88-15,25.78-37.82,25.03-63.21C140.54,36.67,110.43,3.02,73.62,2.02,34.23.96,2,36.68,2,80.89c0,24.31,9.75,46.05,25.07,60.52ZM70.67,46.78c17.37,0,31.45,15.89,31.45,35.5s-14.08,35.5-31.45,35.5-31.45-15.89-31.45-35.5,14.08-35.5,31.45-35.5Z"/>
        <path class="cls-1" d="M94.73,144.5c-.61.67-1.43,1.04-2.28,1.04l-20.54.14-20.54-.14c-.85,0-1.67-.38-2.28-1.04l-9.22-9.97c-1.19-1.29-3.05-1.4-4.35-.25l-12.17,10.73c-1.3,1.14-1.66,3.18-.85,4.8l46.52,93.25c1.27,2.55,4.53,2.55,5.8,0l46.52-93.25c.81-1.61.45-3.66-.85-4.8l-12.17-10.73c-1.3-1.15-3.16-1.04-4.35.25l-9.22,9.97h-.02Z"/>
      </g>
    </g>
  </g>
</svg>